<?xml version="1.0" encoding="utf-8"?>
<!-- Generator: Adobe Illustrator 15.0.1, SVG Export Plug-In . SVG Version: 6.00 Build 0)  -->
<!DOCTYPE svg PUBLIC "-//W3C//DTD SVG 1.1//EN" "http://www.w3.org/Graphics/SVG/1.1/DTD/svg11.dtd">
<svg version="1.1" id="Layer_1" xmlns="http://www.w3.org/2000/svg" xmlns:xlink="http://www.w3.org/1999/xlink" x="0px" y="0px"
	 width="300px" height="300px" viewBox="0 0 300 300" enable-background="new 0 0 300 300" xml:space="preserve">
<g id="image">
	<g id="vrpn_tracking">
		<rect x="38.244" y="29.173" fill="#00AEEF" width="251.239" height="24.065"/>
		<rect x="41.525" y="34.793" fill="none" width="244.676" height="12.825"/>
		<text transform="matrix(1 0 0 1 89.042 44.9131)" fill="#FFFFFF" font-family="'Inconsolata-dz'" font-size="13.1267">VRPN Traking Server</text>
	</g>
	<g id="render_servers">
		<g>
			<path d="M77.221,111.633c0,4.677-3.827,8.504-8.504,8.504H46.748c-4.677,0-8.504-3.827-8.504-8.504V80.886
				c0-4.677,3.827-8.504,8.504-8.504h21.969c4.677,0,8.504,3.827,8.504,8.504V111.633z"/>
		</g>
		<g id="tracking_2_">
			<g>
				<g>
					<path d="M162.125,111.633c0,4.677-3.827,8.504-8.504,8.504h-21.968c-4.677,0-8.504-3.827-8.504-8.504V80.886
						c0-4.677,3.827-8.504,8.504-8.504h21.968c4.677,0,8.504,3.827,8.504,8.504V111.633z"/>
				</g>
			</g>
		</g>
		<g id="tracking_3_">
			<g>
				<g>
					<path d="M204.579,111.633c0,4.677-3.827,8.504-8.504,8.504h-21.969c-4.677,0-8.504-3.827-8.504-8.504V80.886
						c0-4.677,3.827-8.504,8.504-8.504h21.969c4.677,0,8.504,3.827,8.504,8.504V111.633z"/>
				</g>
			</g>
		</g>
		<g id="tracking_4_">
			<g>
				<g>
					<path d="M247.031,111.633c0,4.677-3.827,8.504-8.504,8.504h-21.969c-4.677,0-8.504-3.827-8.504-8.504V80.886
						c0-4.677,3.827-8.504,8.504-8.504h21.969c4.677,0,8.504,3.827,8.504,8.504V111.633z"/>
				</g>
			</g>
		</g>
		<g id="tracking_5_">
			<g>
				<g>
					<path d="M289.483,111.633c0,4.677-3.827,8.504-8.504,8.504h-21.969c-4.677,0-8.504-3.827-8.504-8.504V80.886
						c0-4.677,3.827-8.504,8.504-8.504h21.969c4.677,0,8.504,3.827,8.504,8.504V111.633z"/>
				</g>
			</g>
		</g>
		<g id="tracking_1_">
			<rect x="37.599" y="84.227" opacity="0.52" fill="#EC008C" width="251.239" height="24.065"/>
			<rect x="40.88" y="89.847" fill="none" width="244.676" height="12.825"/>
			<text transform="matrix(1 0 0 1 88.3965 99.9678)" fill="#FFFFFF" font-family="'Inconsolata-dz'" font-size="13.1267">Application Servers</text>
			<rect x="142.637" y="108.292" opacity="0.52" fill="#EC008C" width="6.201" height="137.518"/>
			<rect x="148.838" y="175.606" opacity="0.52" fill="#EC008C" width="14.581" height="6.201"/>
			<rect x="120.444" y="239.608" opacity="0.52" fill="#EC008C" width="22.192" height="6.201"/>
		</g>
	</g>
	<g id="cave">
		<g>
			<g>
				<g>
					<path d="M187.847,202.976c0,4.677,2.706,5.798,6.014,2.49l10.346-10.346c3.308-3.308,6.014-9.841,6.014-14.518v-6.258
						c0-4.677-2.706-11.21-6.013-14.518l-10.348-10.347c-3.307-3.308-6.013-2.187-6.013,2.49V202.976z"/>
				</g>
				<g>
					<path d="M250.448,214.573c4.677,0,5.798-2.706,2.491-6.014l-10.349-10.348c-3.307-3.308-9.84-6.014-14.517-6.014h-6.256
						c-4.677,0-11.21,2.706-14.517,6.014l-10.349,10.348c-3.307,3.308-2.186,6.014,2.491,6.014H250.448z"/>
				</g>
				<g>
					<path d="M262.046,151.971c0-4.677-2.706-5.798-6.013-2.49l-10.349,10.348c-3.307,3.308-6.013,9.841-6.013,14.518v6.256
						c0,4.677,2.706,11.21,6.013,14.517l10.348,10.348c3.308,3.308,6.014,2.187,6.014-2.49V151.971z"/>
				</g>
				<g>
					<path d="M252.938,146.388c3.308-3.308,2.187-6.014-2.49-6.014h-51.004c-4.677,0-5.798,2.706-2.49,6.014l10.346,10.346
						c3.308,3.308,9.841,6.014,14.518,6.014h6.258c4.677,0,11.21-2.706,14.518-6.014L252.938,146.388z"/>
				</g>
				<g>
					<path d="M250.858,181.002c0,4.677-3.827,8.504-8.504,8.504h-34.817c-4.677,0-8.504-3.827-8.504-8.504v-7.058
						c0-4.677,3.827-8.504,8.504-8.504h34.817c4.677,0,8.504,3.827,8.504,8.504V181.002z"/>
				</g>
			</g>
		</g>
		<g id="tracking_6_">
			<rect x="163.419" y="165.44" opacity="0.52" fill="#FFF200" width="123.235" height="24.065"/>
			<rect x="201.667" y="171.061" fill="none" width="46.738" height="12.825"/>
			<text transform="matrix(0.9874 0 0 1 209.4824 181.1816)" fill="#FFFFFF" font-family="'Inconsolata-dz'" font-size="13.1267">CAVE</text>
		</g>
	</g>
	<g id="tablet">
		<path d="M92.144,208.925H62.298c-5.115,0-9.302,4.186-9.302,9.302v46.299c0,5.116,4.187,9.303,9.302,9.303h10.873
			c-0.873-0.969-1.419-2.239-1.419-3.646c0-3.021,2.448-5.47,5.47-5.47c3.021,0,5.47,2.448,5.47,5.47
			c0,1.406-0.546,2.677-1.419,3.646h10.871c5.116,0,9.303-4.187,9.303-9.303v-46.299C101.446,213.11,97.26,208.925,92.144,208.925z
			 M66.731,270.727H65.4c-5.116,0-9.303-4.187-9.303-9.302v-40.097c0-5.116,4.187-9.303,9.303-9.303h1.331
			c-5.116,0-9.303,4.187-9.303,9.303v40.097C57.429,266.54,61.615,270.727,66.731,270.727z M98.347,261.425
			c0,5.115-4.187,9.302-9.303,9.302h-0.99c5.116,0,9.303-4.187,9.303-9.302v-40.097c0-5.116-4.187-9.303-9.303-9.303h0.99
			c5.116,0,9.303,4.187,9.303,9.303V261.425z"/>
		<g id="tracking_7_">
			<rect x="37.599" y="230.677" opacity="0.52" fill="#8DC63F" width="82.846" height="24.066"/>
			<rect x="54.707" y="236.297" fill="none" width="46.738" height="12.826"/>
			<text transform="matrix(0.9874 0 0 1 54.7471 246.418)" fill="#FFFFFF" font-family="'Inconsolata-dz'" font-size="13.1267">Tablet</text>
			<rect x="9.57" y="38.104" opacity="0.52" fill="#8DC63F" width="6.201" height="207.705"/>
			<rect x="15.771" y="239.608" opacity="0.52" fill="#8DC63F" width="22.193" height="6.201"/>
			<rect x="15.771" y="38.104" opacity="0.52" fill="#8DC63F" width="22.473" height="6.201"/>
		</g>
	</g>
</g>
<rect x="55.032" y="53.238" fill="#00AEEF" width="6.201" height="30.988"/>
<rect x="140.532" y="53.238" fill="#00AEEF" width="6.201" height="30.988"/>
<rect x="182.532" y="53.238" fill="#00AEEF" width="6.201" height="30.988"/>
<rect x="225.032" y="53.238" fill="#00AEEF" width="6.201" height="30.988"/>
<rect x="266.532" y="53.238" fill="#00AEEF" width="6.201" height="30.988"/>
</svg>
